<?xml version="1.0" encoding="us-ascii" standalone="no"?><svg xmlns="http://www.w3.org/2000/svg" xmlns:xlink="http://www.w3.org/1999/xlink" contentStyleType="text/css" height="728px" preserveAspectRatio="none" style="width:1419px;height:728px;background:#FFFFFF;" version="1.1" viewBox="0 0 1419 728" width="1419px" zoomAndPan="magnify"><defs/><g><line style="stroke:#181818;stroke-width:0.5;stroke-dasharray:5.0,5.0;" x1="54" x2="54" y1="68.8906" y2="660.9453"/><line style="stroke:#181818;stroke-width:0.5;stroke-dasharray:5.0,5.0;" x1="256" x2="256" y1="68.8906" y2="660.9453"/><line style="stroke:#181818;stroke-width:0.5;stroke-dasharray:5.0,5.0;" x1="466.5" x2="466.5" y1="68.8906" y2="660.9453"/><line style="stroke:#181818;stroke-width:0.5;stroke-dasharray:5.0,5.0;" x1="670.5" x2="670.5" y1="68.8906" y2="660.9453"/><line style="stroke:#181818;stroke-width:0.5;stroke-dasharray:5.0,5.0;" x1="854" x2="854" y1="68.8906" y2="660.9453"/><line style="stroke:#181818;stroke-width:0.5;stroke-dasharray:5.0,5.0;" x1="1024" x2="1024" y1="68.8906" y2="660.9453"/><line style="stroke:#181818;stroke-width:0.5;stroke-dasharray:5.0,5.0;" x1="1245.5" x2="1245.5" y1="68.8906" y2="660.9453"/><rect fill="#E2E2F0" height="62.8906" rx="2.5" ry="2.5" style="stroke:#181818;stroke-width:0.5;" width="99" x="5" y="5"/><text fill="#000000" font-family="sans-serif" font-size="14" lengthAdjust="spacing" textLength="83" x="13" y="24.9951">AI-powered</text><text fill="#000000" font-family="sans-serif" font-size="14" lengthAdjust="spacing" textLength="85" x="12" y="41.292">Background</text><text fill="#000000" font-family="sans-serif" font-size="14" lengthAdjust="spacing" textLength="52" x="28.5" y="57.5889">Checks</text><rect fill="#E2E2F0" height="62.8906" rx="2.5" ry="2.5" style="stroke:#181818;stroke-width:0.5;" width="99" x="5" y="659.9453"/><text fill="#000000" font-family="sans-serif" font-size="14" lengthAdjust="spacing" textLength="83" x="13" y="679.9404">AI-powered</text><text fill="#000000" font-family="sans-serif" font-size="14" lengthAdjust="spacing" textLength="85" x="12" y="696.2373">Background</text><text fill="#000000" font-family="sans-serif" font-size="14" lengthAdjust="spacing" textLength="52" x="28.5" y="712.5342">Checks</text><rect fill="#E2E2F0" height="46.5938" rx="2.5" ry="2.5" style="stroke:#181818;stroke-width:0.5;" width="87" x="213" y="21.2969"/><text fill="#000000" font-family="sans-serif" font-size="14" lengthAdjust="spacing" textLength="73" x="220" y="41.292">Predictive</text><text fill="#000000" font-family="sans-serif" font-size="14" lengthAdjust="spacing" textLength="65" x="224" y="57.5889">Analytics</text><rect fill="#E2E2F0" height="46.5938" rx="2.5" ry="2.5" style="stroke:#181818;stroke-width:0.5;" width="87" x="213" y="659.9453"/><text fill="#000000" font-family="sans-serif" font-size="14" lengthAdjust="spacing" textLength="73" x="220" y="679.9404">Predictive</text><text fill="#000000" font-family="sans-serif" font-size="14" lengthAdjust="spacing" textLength="65" x="224" y="696.2373">Analytics</text><rect fill="#E2E2F0" height="46.5938" rx="2.5" ry="2.5" style="stroke:#181818;stroke-width:0.5;" width="100" x="416.5" y="21.2969"/><text fill="#000000" font-family="sans-serif" font-size="14" lengthAdjust="spacing" textLength="83" x="425" y="41.292">AI-powered</text><text fill="#000000" font-family="sans-serif" font-size="14" lengthAdjust="spacing" textLength="86" x="423.5" y="57.5889">Surveillance</text><rect fill="#E2E2F0" height="46.5938" rx="2.5" ry="2.5" style="stroke:#181818;stroke-width:0.5;" width="100" x="416.5" y="659.9453"/><text fill="#000000" font-family="sans-serif" font-size="14" lengthAdjust="spacing" textLength="83" x="425" y="679.9404">AI-powered</text><text fill="#000000" font-family="sans-serif" font-size="14" lengthAdjust="spacing" textLength="86" x="423.5" y="696.2373">Surveillance</text><rect fill="#E2E2F0" height="62.8906" rx="2.5" ry="2.5" style="stroke:#181818;stroke-width:0.5;" width="122" x="609.5" y="5"/><text fill="#000000" font-family="sans-serif" font-size="14" lengthAdjust="spacing" textLength="103" x="619" y="24.9951">Blockchain for</text><text fill="#000000" font-family="sans-serif" font-size="14" lengthAdjust="spacing" textLength="108" x="616.5" y="41.292">Secure Firearm</text><text fill="#000000" font-family="sans-serif" font-size="14" lengthAdjust="spacing" textLength="89" x="626" y="57.5889">Registration</text><rect fill="#E2E2F0" height="62.8906" rx="2.5" ry="2.5" style="stroke:#181818;stroke-width:0.5;" width="122" x="609.5" y="659.9453"/><text fill="#000000" font-family="sans-serif" font-size="14" lengthAdjust="spacing" textLength="103" x="619" y="679.9404">Blockchain for</text><text fill="#000000" font-family="sans-serif" font-size="14" lengthAdjust="spacing" textLength="108" x="616.5" y="696.2373">Secure Firearm</text><text fill="#000000" font-family="sans-serif" font-size="14" lengthAdjust="spacing" textLength="89" x="626" y="712.5342">Registration</text><rect fill="#E2E2F0" height="46.5938" rx="2.5" ry="2.5" style="stroke:#181818;stroke-width:0.5;" width="141" x="784" y="21.2969"/><text fill="#000000" font-family="sans-serif" font-size="14" lengthAdjust="spacing" textLength="127" x="791" y="41.292">Blockchain-based</text><text fill="#000000" font-family="sans-serif" font-size="14" lengthAdjust="spacing" textLength="94" x="807.5" y="57.5889">Gun Tracking</text><rect fill="#E2E2F0" height="46.5938" rx="2.5" ry="2.5" style="stroke:#181818;stroke-width:0.5;" width="141" x="784" y="659.9453"/><text fill="#000000" font-family="sans-serif" font-size="14" lengthAdjust="spacing" textLength="127" x="791" y="679.9404">Blockchain-based</text><text fill="#000000" font-family="sans-serif" font-size="14" lengthAdjust="spacing" textLength="94" x="807.5" y="696.2373">Gun Tracking</text><rect fill="#E2E2F0" height="62.8906" rx="2.5" ry="2.5" style="stroke:#181818;stroke-width:0.5;" width="115" x="967" y="5"/><text fill="#000000" font-family="sans-serif" font-size="14" lengthAdjust="spacing" textLength="101" x="974" y="24.9951">Decentralized</text><text fill="#000000" font-family="sans-serif" font-size="14" lengthAdjust="spacing" textLength="87" x="981" y="41.292">Identity and</text><text fill="#000000" font-family="sans-serif" font-size="14" lengthAdjust="spacing" textLength="99" x="975" y="57.5889">Gun Licensing</text><rect fill="#E2E2F0" height="62.8906" rx="2.5" ry="2.5" style="stroke:#181818;stroke-width:0.5;" width="115" x="967" y="659.9453"/><text fill="#000000" font-family="sans-serif" font-size="14" lengthAdjust="spacing" textLength="101" x="974" y="679.9404">Decentralized</text><text fill="#000000" font-family="sans-serif" font-size="14" lengthAdjust="spacing" textLength="87" x="981" y="696.2373">Identity and</text><text fill="#000000" font-family="sans-serif" font-size="14" lengthAdjust="spacing" textLength="99" x="975" y="712.5342">Gun Licensing</text><rect fill="#E2E2F0" height="62.8906" rx="2.5" ry="2.5" style="stroke:#181818;stroke-width:0.5;" width="176" x="1157.5" y="5"/><text fill="#000000" font-family="sans-serif" font-size="14" lengthAdjust="spacing" textLength="126" x="1182.5" y="24.9951">AI and Blockchain</text><text fill="#000000" font-family="sans-serif" font-size="14" lengthAdjust="spacing" textLength="157" x="1167" y="41.292">for Community-based</text><text fill="#000000" font-family="sans-serif" font-size="14" lengthAdjust="spacing" textLength="162" x="1164.5" y="57.5889">Intervention Programs</text><rect fill="#E2E2F0" height="62.8906" rx="2.5" ry="2.5" style="stroke:#181818;stroke-width:0.5;" width="176" x="1157.5" y="659.9453"/><text fill="#000000" font-family="sans-serif" font-size="14" lengthAdjust="spacing" textLength="126" x="1182.5" y="679.9404">AI and Blockchain</text><text fill="#000000" font-family="sans-serif" font-size="14" lengthAdjust="spacing" textLength="157" x="1167" y="696.2373">for Community-based</text><text fill="#000000" font-family="sans-serif" font-size="14" lengthAdjust="spacing" textLength="162" x="1164.5" y="712.5342">Intervention Programs</text><path d="M59,83.8906 L59,138.8906 L229,138.8906 L229,93.8906 L219,83.8906 L59,83.8906 " fill="#FEFFDD" style="stroke:#181818;stroke-width:0.5;"/><path d="M219,83.8906 L219,93.8906 L229,93.8906 L219,83.8906 " fill="#FEFFDD" style="stroke:#181818;stroke-width:0.5;"/><text fill="#000000" font-family="sans-serif" font-size="13" lengthAdjust="spacing" textLength="149" x="65" y="100.9575">Automate and improve</text><text fill="#000000" font-family="sans-serif" font-size="13" lengthAdjust="spacing" textLength="116" x="65" y="116.0903">background check</text><text fill="#000000" font-family="sans-serif" font-size="13" lengthAdjust="spacing" textLength="104" x="65" y="131.2231">process using AI</text><path d="M261,149.2891 L261,189.2891 L428,189.2891 L428,159.2891 L418,149.2891 L261,149.2891 " fill="#FEFFDD" style="stroke:#181818;stroke-width:0.5;"/><path d="M418,149.2891 L418,159.2891 L428,159.2891 L418,149.2891 " fill="#FEFFDD" style="stroke:#181818;stroke-width:0.5;"/><text fill="#000000" font-family="sans-serif" font-size="13" lengthAdjust="spacing" textLength="146" x="267" y="166.356">Identify high-risk areas</text><text fill="#000000" font-family="sans-serif" font-size="13" lengthAdjust="spacing" textLength="95" x="267" y="181.4888">and individuals</text><path d="M471,199.5547 L471,239.5547 L627,239.5547 L627,209.5547 L617,199.5547 L471,199.5547 " fill="#FEFFDD" style="stroke:#181818;stroke-width:0.5;"/><path d="M617,199.5547 L617,209.5547 L627,209.5547 L617,199.5547 " fill="#FEFFDD" style="stroke:#181818;stroke-width:0.5;"/><text fill="#000000" font-family="sans-serif" font-size="13" lengthAdjust="spacing" textLength="107" x="477" y="216.6216">Detect and track</text><text fill="#000000" font-family="sans-serif" font-size="13" lengthAdjust="spacing" textLength="135" x="477" y="231.7544">prohibited individuals</text><path d="M675,249.8203 L675,304.8203 L838,304.8203 L838,259.8203 L828,249.8203 L675,249.8203 " fill="#FEFFDD" style="stroke:#181818;stroke-width:0.5;"/><path d="M828,249.8203 L828,259.8203 L838,259.8203 L828,249.8203 " fill="#FEFFDD" style="stroke:#181818;stroke-width:0.5;"/><text fill="#000000" font-family="sans-serif" font-size="13" lengthAdjust="spacing" textLength="142" x="681" y="266.8872">Tamper-proof registry</text><text fill="#000000" font-family="sans-serif" font-size="13" lengthAdjust="spacing" textLength="139" x="681" y="282.02">for firearm ownership</text><text fill="#000000" font-family="sans-serif" font-size="13" lengthAdjust="spacing" textLength="61" x="681" y="297.1528">and sales</text><path d="M859,315.2188 L859,355.2188 L1009,355.2188 L1009,325.2188 L999,315.2188 L859,315.2188 " fill="#FEFFDD" style="stroke:#181818;stroke-width:0.5;"/><path d="M999,315.2188 L999,325.2188 L1009,325.2188 L999,315.2188 " fill="#FEFFDD" style="stroke:#181818;stroke-width:0.5;"/><text fill="#000000" font-family="sans-serif" font-size="13" lengthAdjust="spacing" textLength="129" x="865" y="332.2856">Improve gun tracing</text><text fill="#000000" font-family="sans-serif" font-size="13" lengthAdjust="spacing" textLength="113" x="865" y="347.4185">and transparency</text><path d="M1029,365.4844 L1029,420.4844 L1178,420.4844 L1178,375.4844 L1168,365.4844 L1029,365.4844 " fill="#FEFFDD" style="stroke:#181818;stroke-width:0.5;"/><path d="M1168,365.4844 L1168,375.4844 L1178,375.4844 L1168,365.4844 " fill="#FEFFDD" style="stroke:#181818;stroke-width:0.5;"/><text fill="#000000" font-family="sans-serif" font-size="13" lengthAdjust="spacing" textLength="128" x="1035" y="382.5513">Secure and efficient</text><text fill="#000000" font-family="sans-serif" font-size="13" lengthAdjust="spacing" textLength="100" x="1035" y="397.6841">digital identities</text><text fill="#000000" font-family="sans-serif" font-size="13" lengthAdjust="spacing" textLength="97" x="1035" y="412.8169">for gun owners</text><path d="M1250,430.8828 L1250,470.8828 L1412,470.8828 L1412,440.8828 L1402,430.8828 L1250,430.8828 " fill="#FEFFDD" style="stroke:#181818;stroke-width:0.5;"/><path d="M1402,430.8828 L1402,440.8828 L1412,440.8828 L1402,430.8828 " fill="#FEFFDD" style="stroke:#181818;stroke-width:0.5;"/><text fill="#000000" font-family="sans-serif" font-size="13" lengthAdjust="spacing" textLength="112" x="1256" y="447.9497">Analyze data and</text><text fill="#000000" font-family="sans-serif" font-size="13" lengthAdjust="spacing" textLength="141" x="1256" y="463.0825">enhance collaboration</text><polygon fill="#181818" points="244.5,493.2813,254.5,497.2813,244.5,501.2813,248.5,497.2813" style="stroke:#181818;stroke-width:1.0;"/><line style="stroke:#181818;stroke-width:1.0;" x1="54.5" x2="250.5" y1="497.2813" y2="497.2813"/><text fill="#000000" font-family="sans-serif" font-size="13" lengthAdjust="spacing" textLength="178" x="61.5" y="492.2153">Identify High-risk Individuals</text><polygon fill="#181818" points="454.5,522.4141,464.5,526.4141,454.5,530.4141,458.5,526.4141" style="stroke:#181818;stroke-width:1.0;"/><line style="stroke:#181818;stroke-width:1.0;" x1="256.5" x2="460.5" y1="526.4141" y2="526.4141"/><text fill="#000000" font-family="sans-serif" font-size="13" lengthAdjust="spacing" textLength="186" x="263.5" y="521.3481">Monitor Prohibited Individuals</text><polygon fill="#181818" points="658.5,551.5469,668.5,555.5469,658.5,559.5469,662.5,555.5469" style="stroke:#181818;stroke-width:1.0;"/><line style="stroke:#181818;stroke-width:1.0;" x1="466.5" x2="664.5" y1="555.5469" y2="555.5469"/><text fill="#000000" font-family="sans-serif" font-size="13" lengthAdjust="spacing" textLength="180" x="473.5" y="550.481">Register and Track Firearms</text><polygon fill="#181818" points="842.5,580.6797,852.5,584.6797,842.5,588.6797,846.5,584.6797" style="stroke:#181818;stroke-width:1.0;"/><line style="stroke:#181818;stroke-width:1.0;" x1="670.5" x2="848.5" y1="584.6797" y2="584.6797"/><text fill="#000000" font-family="sans-serif" font-size="13" lengthAdjust="spacing" textLength="160" x="677.5" y="579.6138">Trace Firearms in Crimes</text><polygon fill="#181818" points="1012.5,609.8125,1022.5,613.8125,1012.5,617.8125,1016.5,613.8125" style="stroke:#181818;stroke-width:1.0;"/><line style="stroke:#181818;stroke-width:1.0;" x1="854.5" x2="1018.5" y1="613.8125" y2="613.8125"/><text fill="#000000" font-family="sans-serif" font-size="13" lengthAdjust="spacing" textLength="146" x="861.5" y="608.7466">Verify Owner Identities</text><polygon fill="#181818" points="1233.5,638.9453,1243.5,642.9453,1233.5,646.9453,1237.5,642.9453" style="stroke:#181818;stroke-width:1.0;"/><line style="stroke:#181818;stroke-width:1.0;" x1="1024.5" x2="1239.5" y1="642.9453" y2="642.9453"/><text fill="#000000" font-family="sans-serif" font-size="13" lengthAdjust="spacing" textLength="197" x="1031.5" y="637.8794">Support Intervention Programs</text><!--SRC=[VLF1RgD03BtdAwpUymCvh0H4pI9rjIZ9zeHKJGO3Li23PePKwTUlXu4sJNTxI-mtVi_FZq5PJve6nHuUadmzc5UqM9MSAdrkh1bPVcSjwhDx0EKWoL_IRCN68rXgMW-cZhKD9ACtlPA6uWge7wovOCcdzpcWmvYIfQ7HEHWTSIEFLyEjXaBOINiARnDMtLLQaRf8xdYBP0DvXUofla8hrRKbTmPbKRcI9nLSqOMgKNNkCyljfeVHNf2wJh76PSV3d_tpror3TGDRzAZzjAMtQjwefHDv_8OnxOm-wrOHGssiiA8UBS8ZYLhRbxp7XfpCysHuKf4-xkyKI6K3HzKFQDT2AHKR7rrBbfbGnrbWNXcjQsc89ZZLuN_5h4_A1HDs8yCnR2CtYVIxuptzxYX-nxj28_YmlS0ZY_nX9oJ8-lgPR8jQRcHLHs-1ALxCNuE1aVU91E0Mucs-UxfZ3gKDp8u5Cgnh6IzpIh6x8Qywe3YMq4KpWi1enFtbfmaV3aHuPlf-P96r69ApHya5Xtj0OKrZLRzy0cdsagLvyIKWSrq-XH3SDuHAUHNtH6v3la0R2Th9n3klLjEd0-iVacMu2VFFzp3dDtaIZ23d70hybn71ehtuYDyjV07A6qcEu6F4q4u6JCTUukTM0H60kwC0G-yzcauo3PcbNa8Kse8Azn3OCzeWzdTmUTOU_5zDxKdfR8XW3-Cm6ElXdxR-1G00]--></g></svg>