<?xml version="1.0" encoding="us-ascii" standalone="no"?><svg xmlns="http://www.w3.org/2000/svg" xmlns:xlink="http://www.w3.org/1999/xlink" contentStyleType="text/css" height="514px" preserveAspectRatio="none" style="width:1181px;height:514px;background:#FFFFFF;" version="1.1" viewBox="0 0 1181 514" width="1181px" zoomAndPan="magnify"><defs/><g><ellipse cx="119.5" cy="20" fill="#222222" rx="10" ry="10" style="stroke:#222222;stroke-width:1.0;"/><path d="M215.5,54.418 L215.5,62.9844 L195.5,66.9844 L215.5,70.9844 L215.5,79.5508 A0,0 0 0 0 215.5,79.5508 L961.5,79.5508 A0,0 0 0 0 961.5,79.5508 L961.5,64.418 L951.5,54.418 L215.5,54.418 A0,0 0 0 0 215.5,54.418 " fill="#FEFFDD" style="stroke:#181818;stroke-width:0.5;"/><path d="M951.5,54.418 L951.5,64.418 L961.5,64.418 L951.5,54.418 " fill="#FEFFDD" style="stroke:#181818;stroke-width:0.5;"/><text fill="#000000" font-family="sans-serif" font-size="13" lengthAdjust="spacing" textLength="725" x="221.5" y="71.4849">AI can analyze CCTV footage, digital evidence like social media posts or emails, looking for patterns or keywords.</text><rect fill="#F1F1F1" height="33.9688" rx="12.5" ry="12.5" style="stroke:#181818;stroke-width:0.5;" width="152" x="43.5" y="50"/><text fill="#000000" font-family="sans-serif" font-size="12" lengthAdjust="spacing" textLength="132" x="53.5" y="71.1387">AI - Evidence Analysis</text><path d="M215.5,108.3867 L215.5,116.9531 L195.5,120.9531 L215.5,124.9531 L215.5,133.5195 A0,0 0 0 0 215.5,133.5195 L861.5,133.5195 A0,0 0 0 0 861.5,133.5195 L861.5,118.3867 L851.5,108.3867 L215.5,108.3867 A0,0 0 0 0 215.5,108.3867 " fill="#FEFFDD" style="stroke:#181818;stroke-width:0.5;"/><path d="M851.5,108.3867 L851.5,118.3867 L861.5,118.3867 L851.5,108.3867 " fill="#FEFFDD" style="stroke:#181818;stroke-width:0.5;"/><text fill="#000000" font-family="sans-serif" font-size="13" lengthAdjust="spacing" textLength="625" x="221.5" y="125.4536">AI can analyze past crime data to predict where and when crimes are likely to occur in the future.</text><rect fill="#F1F1F1" height="33.9688" rx="12.5" ry="12.5" style="stroke:#181818;stroke-width:0.5;" width="152" x="43.5" y="103.9688"/><text fill="#000000" font-family="sans-serif" font-size="12" lengthAdjust="spacing" textLength="132" x="53.5" y="125.1074">AI - Predictive Policing</text><path d="M248,162.3555 L248,170.9219 L228,174.9219 L248,178.9219 L248,187.4883 A0,0 0 0 0 248,187.4883 L980,187.4883 A0,0 0 0 0 980,187.4883 L980,172.3555 L970,162.3555 L248,162.3555 A0,0 0 0 0 248,162.3555 " fill="#FEFFDD" style="stroke:#181818;stroke-width:0.5;"/><path d="M970,162.3555 L970,172.3555 L980,172.3555 L970,162.3555 " fill="#FEFFDD" style="stroke:#181818;stroke-width:0.5;"/><text fill="#000000" font-family="sans-serif" font-size="13" lengthAdjust="spacing" textLength="711" x="254" y="179.4224">AI can transcribe and analyze witness interviews, identify key themes or emotions, and detect inconsistencies.</text><rect fill="#F1F1F1" height="33.9688" rx="12.5" ry="12.5" style="stroke:#181818;stroke-width:0.5;" width="217" x="11" y="157.9375"/><text fill="#000000" font-family="sans-serif" font-size="12" lengthAdjust="spacing" textLength="197" x="21" y="179.0762">AI - Natural Language Processing</text><path d="M214,216.3242 L214,224.8906 L194,228.8906 L214,232.8906 L214,241.457 A0,0 0 0 0 214,241.457 L802,241.457 A0,0 0 0 0 802,241.457 L802,226.3242 L792,216.3242 L214,216.3242 A0,0 0 0 0 214,216.3242 " fill="#FEFFDD" style="stroke:#181818;stroke-width:0.5;"/><path d="M792,216.3242 L792,226.3242 L802,226.3242 L792,216.3242 " fill="#FEFFDD" style="stroke:#181818;stroke-width:0.5;"/><text fill="#000000" font-family="sans-serif" font-size="13" lengthAdjust="spacing" textLength="567" x="220" y="233.3911">AI tools can assist in matching fingerprints or DNA samples more quickly and accurately.</text><rect fill="#F1F1F1" height="33.9688" rx="12.5" ry="12.5" style="stroke:#181818;stroke-width:0.5;" width="149" x="45" y="211.9063"/><text fill="#000000" font-family="sans-serif" font-size="12" lengthAdjust="spacing" textLength="129" x="55" y="233.0449">AI - Forensic Analysis</text><path d="M242,270.293 L242,278.8594 L222,282.8594 L242,286.8594 L242,295.4258 A0,0 0 0 0 242,295.4258 L1127,295.4258 A0,0 0 0 0 1127,295.4258 L1127,280.293 L1117,270.293 L242,270.293 A0,0 0 0 0 242,270.293 " fill="#FEFFDD" style="stroke:#181818;stroke-width:0.5;"/><path d="M1117,270.293 L1117,280.293 L1127,280.293 L1117,270.293 " fill="#FEFFDD" style="stroke:#181818;stroke-width:0.5;"/><text fill="#000000" font-family="sans-serif" font-size="13" lengthAdjust="spacing" textLength="864" x="248" y="287.3599">Blockchain can create an immutable record of evidence, ensuring the integrity of the evidence from the crime scene to the courtroom.</text><rect fill="#F1F1F1" height="33.9688" rx="12.5" ry="12.5" style="stroke:#181818;stroke-width:0.5;" width="205" x="17" y="265.875"/><text fill="#000000" font-family="sans-serif" font-size="12" lengthAdjust="spacing" textLength="185" x="27" y="287.0137">Blockchain - Evidence Integrity</text><path d="M236,324.2617 L236,332.8281 L216,336.8281 L236,340.8281 L236,349.3945 A0,0 0 0 0 236,349.3945 L1169,349.3945 A0,0 0 0 0 1169,349.3945 L1169,334.2617 L1159,324.2617 L236,324.2617 A0,0 0 0 0 236,324.2617 " fill="#FEFFDD" style="stroke:#181818;stroke-width:0.5;"/><path d="M1159,324.2617 L1159,334.2617 L1169,334.2617 L1159,324.2617 " fill="#FEFFDD" style="stroke:#181818;stroke-width:0.5;"/><text fill="#000000" font-family="sans-serif" font-size="13" lengthAdjust="spacing" textLength="912" x="242" y="341.3286">Blockchain can ensure the authenticity and integrity of digital evidence by hashing the digital evidence and storing the hash on the blockchain.</text><rect fill="#F1F1F1" height="33.9688" rx="12.5" ry="12.5" style="stroke:#181818;stroke-width:0.5;" width="193" x="23" y="319.8438"/><text fill="#000000" font-family="sans-serif" font-size="12" lengthAdjust="spacing" textLength="173" x="33" y="340.9824">Blockchain - Digital Evidence</text><path d="M246,378.2305 L246,386.7969 L226,390.7969 L246,394.7969 L246,403.3633 A0,0 0 0 0 246,403.3633 L904,403.3633 A0,0 0 0 0 904,403.3633 L904,388.2305 L894,378.2305 L246,378.2305 A0,0 0 0 0 246,378.2305 " fill="#FEFFDD" style="stroke:#181818;stroke-width:0.5;"/><path d="M894,378.2305 L894,388.2305 L904,388.2305 L894,378.2305 " fill="#FEFFDD" style="stroke:#181818;stroke-width:0.5;"/><text fill="#000000" font-family="sans-serif" font-size="13" lengthAdjust="spacing" textLength="637" x="252" y="395.2974">Blockchain could facilitate secure information sharing between different law enforcement agencies.</text><rect fill="#F1F1F1" height="33.9688" rx="12.5" ry="12.5" style="stroke:#181818;stroke-width:0.5;" width="213" x="13" y="373.8125"/><text fill="#000000" font-family="sans-serif" font-size="12" lengthAdjust="spacing" textLength="193" x="23" y="394.9512">Blockchain - Information Sharing</text><path d="M245.5,432.1992 L245.5,440.7656 L225.5,444.7656 L245.5,448.7656 L245.5,457.332 A0,0 0 0 0 245.5,457.332 L922.5,457.332 A0,0 0 0 0 922.5,457.332 L922.5,442.1992 L912.5,432.1992 L245.5,432.1992 A0,0 0 0 0 245.5,432.1992 " fill="#FEFFDD" style="stroke:#181818;stroke-width:0.5;"/><path d="M912.5,432.1992 L912.5,442.1992 L922.5,442.1992 L912.5,432.1992 " fill="#FEFFDD" style="stroke:#181818;stroke-width:0.5;"/><text fill="#000000" font-family="sans-serif" font-size="13" lengthAdjust="spacing" textLength="656" x="251.5" y="449.2661">Blockchain can be used for secure identity verification, especially useful in cases involving cybercrime.</text><rect fill="#F1F1F1" height="33.9688" rx="12.5" ry="12.5" style="stroke:#181818;stroke-width:0.5;" width="212" x="13.5" y="427.7813"/><text fill="#000000" font-family="sans-serif" font-size="12" lengthAdjust="spacing" textLength="192" x="23.5" y="448.9199">Blockchain - Identity Verification</text><ellipse cx="119.5" cy="492.75" fill="none" rx="11" ry="11" style="stroke:#222222;stroke-width:1.0;"/><ellipse cx="119.5" cy="492.75" fill="#222222" rx="6" ry="6" style="stroke:#111111;stroke-width:1.0;"/><line style="stroke:#181818;stroke-width:1.0;" x1="119.5" x2="119.5" y1="30" y2="50"/><polygon fill="#181818" points="115.5,40,119.5,50,123.5,40,119.5,44" style="stroke:#181818;stroke-width:1.0;"/><line style="stroke:#181818;stroke-width:1.0;" x1="119.5" x2="119.5" y1="83.9688" y2="103.9688"/><polygon fill="#181818" points="115.5,93.9688,119.5,103.9688,123.5,93.9688,119.5,97.9688" style="stroke:#181818;stroke-width:1.0;"/><line style="stroke:#181818;stroke-width:1.0;" x1="119.5" x2="119.5" y1="137.9375" y2="157.9375"/><polygon fill="#181818" points="115.5,147.9375,119.5,157.9375,123.5,147.9375,119.5,151.9375" style="stroke:#181818;stroke-width:1.0;"/><line style="stroke:#181818;stroke-width:1.0;" x1="119.5" x2="119.5" y1="191.9063" y2="211.9063"/><polygon fill="#181818" points="115.5,201.9063,119.5,211.9063,123.5,201.9063,119.5,205.9063" style="stroke:#181818;stroke-width:1.0;"/><line style="stroke:#181818;stroke-width:1.0;" x1="119.5" x2="119.5" y1="245.875" y2="265.875"/><polygon fill="#181818" points="115.5,255.875,119.5,265.875,123.5,255.875,119.5,259.875" style="stroke:#181818;stroke-width:1.0;"/><line style="stroke:#181818;stroke-width:1.0;" x1="119.5" x2="119.5" y1="299.8438" y2="319.8438"/><polygon fill="#181818" points="115.5,309.8438,119.5,319.8438,123.5,309.8438,119.5,313.8438" style="stroke:#181818;stroke-width:1.0;"/><line style="stroke:#181818;stroke-width:1.0;" x1="119.5" x2="119.5" y1="353.8125" y2="373.8125"/><polygon fill="#181818" points="115.5,363.8125,119.5,373.8125,123.5,363.8125,119.5,367.8125" style="stroke:#181818;stroke-width:1.0;"/><line style="stroke:#181818;stroke-width:1.0;" x1="119.5" x2="119.5" y1="407.7813" y2="427.7813"/><polygon fill="#181818" points="115.5,417.7813,119.5,427.7813,123.5,417.7813,119.5,421.7813" style="stroke:#181818;stroke-width:1.0;"/><line style="stroke:#181818;stroke-width:1.0;" x1="119.5" x2="119.5" y1="461.75" y2="481.75"/><polygon fill="#181818" points="115.5,471.75,119.5,481.75,123.5,471.75,119.5,475.75" style="stroke:#181818;stroke-width:1.0;"/><!--SRC=[VPH1Zjim34NtEGKFCEq1sbKwqm81Yi40BMQlo7HCH1PTYKxWdhvVSXquJPEDaKZqr-FNfxEvP9lDf-sEFj3NapGSFTCskZ1boPytKOqfoQ6p3KgyY-JAtc-cv-UVxzIgcZlm4pLo47E1U948ScJAwWMBFJVYQD1icJGHzqv2VgAWUfHuW4YYmPbnYdN_oDDPKvC_RZWsL0WMmBS49MzoOdhJ81vlFq8SN3RoINgcnfaZKnfc1Jftd1Y5JVaLvw9CBitWOIgrwlsOI29PnzIEDYQ-HNfrM4UFtrqyZB02ZEevvpjebbpCE6q_7xwGdiKYNi9XSE4aV8OznKYJTYf-58G2MDrJ4uqeA08D6wCTYHvBaWtU2__7kM-Q60N-xjMQQiYpUxa8bRvxPxwhDuG7fo41hpAyl6ufktu8GEgXJBz6yKUuLdigjZc3YLSONuBwe-yST5T9sw7XGnARhdXMjON89uOUn4dwVZIt3oXaZuoGjfV8FH4w75FXBHScYtAfAGkNQBP9-xeoHoDxZbpkkoxfc2ofzlVPN_v6VUdX4NabughiHZnneRuW5P-k06_cPpzHvtAtT7EpNnIowQNTKamwPtL_WRZVnIvYx731Y1Bzw5pwDw_hHdGC3RNEIm03AZBxqfMi9F8iGNksCsEW6cbRJ5Wq2kuC6r3faM3ynupSPlGQhGOVlhnpabPyFU6HonYcCNDJFoGBsw9nMcaW8NdWyab2LF56EmQg4fdBw9qqd4eFVjfpgjbOCyBiuGy0]--></g></svg>