<?xml version="1.0" encoding="us-ascii" standalone="no"?><svg xmlns="http://www.w3.org/2000/svg" xmlns:xlink="http://www.w3.org/1999/xlink" contentStyleType="text/css" height="704px" preserveAspectRatio="none" style="width:843px;height:704px;background:#FFFFFF;" version="1.1" viewBox="0 0 843 704" width="843px" zoomAndPan="magnify"><defs/><g><text fill="#000000" font-family="sans-serif" font-size="14" font-weight="bold" lengthAdjust="spacing" textLength="448" x="196" y="32.9951">AI and Blockchain in Public-Private Partnerships (PPPs)</text><path d="M166,47.2969 L166,102.6953 L426,102.6953 L426,57.2969 L416,47.2969 L166,47.2969 " fill="#FEFFDD" style="stroke:#181818;stroke-width:0.5;"/><path d="M416,47.2969 L416,57.2969 L426,57.2969 L416,47.2969 " fill="#FEFFDD" style="stroke:#181818;stroke-width:0.5;"/><text fill="#000000" font-family="sans-serif" font-size="13" lengthAdjust="spacing" textLength="213" x="172" y="64.3638">This diagram outlines the various</text><text fill="#000000" font-family="sans-serif" font-size="13" lengthAdjust="spacing" textLength="235" x="172" y="79.4966">ways AI and Blockchain can enhance</text><text fill="#000000" font-family="sans-serif" font-size="13" lengthAdjust="spacing" textLength="220" x="172" y="94.6294">Public-Private Partnerships (PPPs).</text><ellipse cx="296" cy="132.6953" fill="#222222" rx="10" ry="10" style="stroke:#222222;stroke-width:1.0;"/><rect fill="none" height="244.1719" style="stroke:#000000;stroke-width:1.5;" width="719.5" x="43.5" y="152.6953"/><path d="M122.5,152.6953 L122.5,161.9922 L112.5,171.9922 L43.5,171.9922 " fill="none" style="stroke:#000000;stroke-width:1.5;"/><text fill="#000000" font-family="sans-serif" font-size="14" lengthAdjust="spacing" textLength="69" x="46.5" y="166.6904">AI in PPPs</text><path d="M546,193.4102 L546,201.9766 L526,205.9766 L546,209.9766 L546,218.543 A0,0 0 0 0 546,218.543 L682,218.543 A0,0 0 0 0 682,218.543 L682,203.4102 L672,193.4102 L546,193.4102 A0,0 0 0 0 546,193.4102 " fill="#FEFFDD" style="stroke:#181818;stroke-width:0.5;"/><path d="M672,193.4102 L672,203.4102 L682,203.4102 L672,193.4102 " fill="#FEFFDD" style="stroke:#181818;stroke-width:0.5;"/><text fill="#000000" font-family="sans-serif" font-size="13" lengthAdjust="spacing" textLength="115" x="552" y="210.4771">Predictive Policing</text><rect fill="#F1F1F1" height="33.9688" rx="12.5" ry="12.5" style="stroke:#181818;stroke-width:0.5;" width="460" x="66" y="188.9922"/><text fill="#000000" font-family="sans-serif" font-size="12" lengthAdjust="spacing" textLength="440" x="76" y="210.1309">AI analyzes data to identify patterns and predict potential crime hotspots</text><path d="M519,247.3789 L519,255.9453 L499,259.9453 L519,263.9453 L519,272.5117 A0,0 0 0 0 519,272.5117 L655,272.5117 A0,0 0 0 0 655,272.5117 L655,257.3789 L645,247.3789 L519,247.3789 A0,0 0 0 0 519,247.3789 " fill="#FEFFDD" style="stroke:#181818;stroke-width:0.5;"/><path d="M645,247.3789 L645,257.3789 L655,257.3789 L645,247.3789 " fill="#FEFFDD" style="stroke:#181818;stroke-width:0.5;"/><text fill="#000000" font-family="sans-serif" font-size="13" lengthAdjust="spacing" textLength="115" x="525" y="264.4458">Facial Recognition</text><rect fill="#F1F1F1" height="33.9688" rx="12.5" ry="12.5" style="stroke:#181818;stroke-width:0.5;" width="406" x="93" y="242.9609"/><text fill="#000000" font-family="sans-serif" font-size="12" lengthAdjust="spacing" textLength="386" x="103" y="264.0996">AI algorithms analyze surveillance footage to identify individuals</text><path d="M558.5,301.3477 L558.5,309.9141 L538.5,313.9141 L558.5,317.9141 L558.5,326.4805 A0,0 0 0 0 558.5,326.4805 L714.5,326.4805 A0,0 0 0 0 714.5,326.4805 L714.5,311.3477 L704.5,301.3477 L558.5,301.3477 A0,0 0 0 0 558.5,301.3477 " fill="#FEFFDD" style="stroke:#181818;stroke-width:0.5;"/><path d="M704.5,301.3477 L704.5,311.3477 L714.5,311.3477 L704.5,301.3477 " fill="#FEFFDD" style="stroke:#181818;stroke-width:0.5;"/><text fill="#000000" font-family="sans-serif" font-size="13" lengthAdjust="spacing" textLength="135" x="564.5" y="318.4146">Social Media Analysis</text><rect fill="#F1F1F1" height="33.9688" rx="12.5" ry="12.5" style="stroke:#181818;stroke-width:0.5;" width="485" x="53.5" y="296.9297"/><text fill="#000000" font-family="sans-serif" font-size="12" lengthAdjust="spacing" textLength="465" x="63.5" y="318.0684">AI analyzes social media posts to identify potential threats or criminal activity</text><path d="M543,355.3164 L543,363.8828 L523,367.8828 L543,371.8828 L543,380.4492 A0,0 0 0 0 543,380.4492 L753,380.4492 A0,0 0 0 0 753,380.4492 L753,365.3164 L743,355.3164 L543,355.3164 A0,0 0 0 0 543,355.3164 " fill="#FEFFDD" style="stroke:#181818;stroke-width:0.5;"/><path d="M743,355.3164 L743,365.3164 L753,365.3164 L743,355.3164 " fill="#FEFFDD" style="stroke:#181818;stroke-width:0.5;"/><text fill="#000000" font-family="sans-serif" font-size="13" lengthAdjust="spacing" textLength="189" x="549" y="372.3833">Data Integration and Analysis</text><rect fill="#F1F1F1" height="33.9688" rx="12.5" ry="12.5" style="stroke:#181818;stroke-width:0.5;" width="454" x="69" y="350.8984"/><text fill="#000000" font-family="sans-serif" font-size="12" lengthAdjust="spacing" textLength="434" x="79" y="372.0371">AI integrates and analyzes data from various private and public sources</text><rect fill="none" height="244.1719" style="stroke:#000000;stroke-width:1.5;" width="821" x="11" y="406.8672"/><path d="M154,406.8672 L154,416.1641 L144,426.1641 L11,426.1641 " fill="none" style="stroke:#000000;stroke-width:1.5;"/><text fill="#000000" font-family="sans-serif" font-size="14" lengthAdjust="spacing" textLength="133" x="14" y="420.8623">Blockchain in PPPs</text><path d="M591,447.582 L591,456.1484 L571,460.1484 L591,464.1484 L591,472.7148 A0,0 0 0 0 591,472.7148 L822,472.7148 A0,0 0 0 0 822,472.7148 L822,457.582 L812,447.582 L591,447.582 A0,0 0 0 0 591,447.582 " fill="#FEFFDD" style="stroke:#181818;stroke-width:0.5;"/><path d="M812,447.582 L812,457.582 L822,457.582 L812,447.582 " fill="#FEFFDD" style="stroke:#181818;stroke-width:0.5;"/><text fill="#000000" font-family="sans-serif" font-size="13" lengthAdjust="spacing" textLength="210" x="597" y="464.6489">Transparency and Accountability</text><rect fill="#F1F1F1" height="33.9688" rx="12.5" ry="12.5" style="stroke:#181818;stroke-width:0.5;" width="550" x="21" y="443.1641"/><text fill="#000000" font-family="sans-serif" font-size="12" lengthAdjust="spacing" textLength="530" x="31" y="464.3027">Blockchain's public ledger provides a transparent and immutable record of transactions</text><path d="M515,501.5508 L515,510.1172 L495,514.1172 L515,518.1172 L515,526.6836 A0,0 0 0 0 515,526.6836 L641,526.6836 A0,0 0 0 0 641,526.6836 L641,511.5508 L631,501.5508 L515,501.5508 A0,0 0 0 0 515,501.5508 " fill="#FEFFDD" style="stroke:#181818;stroke-width:0.5;"/><path d="M631,501.5508 L631,511.5508 L641,511.5508 L631,501.5508 " fill="#FEFFDD" style="stroke:#181818;stroke-width:0.5;"/><text fill="#000000" font-family="sans-serif" font-size="13" lengthAdjust="spacing" textLength="105" x="521" y="518.6177">Smart Contracts</text><rect fill="#F1F1F1" height="33.9688" rx="12.5" ry="12.5" style="stroke:#181818;stroke-width:0.5;" width="398" x="97" y="497.1328"/><text fill="#000000" font-family="sans-serif" font-size="12" lengthAdjust="spacing" textLength="378" x="107" y="518.2715">Blockchain facilitates the use of self-executing smart contracts</text><path d="M549,555.5195 L549,564.0859 L529,568.0859 L549,572.0859 L549,580.6523 A0,0 0 0 0 549,580.6523 L694,580.6523 A0,0 0 0 0 694,580.6523 L694,565.5195 L684,555.5195 L549,555.5195 A0,0 0 0 0 549,555.5195 " fill="#FEFFDD" style="stroke:#181818;stroke-width:0.5;"/><path d="M684,555.5195 L684,565.5195 L694,565.5195 L684,555.5195 " fill="#FEFFDD" style="stroke:#181818;stroke-width:0.5;"/><text fill="#000000" font-family="sans-serif" font-size="13" lengthAdjust="spacing" textLength="124" x="555" y="572.5864">Identity Verification</text><rect fill="#F1F1F1" height="33.9688" rx="12.5" ry="12.5" style="stroke:#181818;stroke-width:0.5;" width="466" x="63" y="551.1016"/><text fill="#000000" font-family="sans-serif" font-size="12" lengthAdjust="spacing" textLength="446" x="73" y="572.2402">Blockchain provides a secure and efficient method for identity verification</text><path d="M534,609.4883 L534,618.0547 L514,622.0547 L534,626.0547 L534,634.6211 A0,0 0 0 0 534,634.6211 L673,634.6211 A0,0 0 0 0 673,634.6211 L673,619.4883 L663,609.4883 L534,609.4883 A0,0 0 0 0 534,609.4883 " fill="#FEFFDD" style="stroke:#181818;stroke-width:0.5;"/><path d="M663,609.4883 L663,619.4883 L673,619.4883 L663,609.4883 " fill="#FEFFDD" style="stroke:#181818;stroke-width:0.5;"/><text fill="#000000" font-family="sans-serif" font-size="13" lengthAdjust="spacing" textLength="118" x="540" y="626.5552">Resource Tracking</text><rect fill="#F1F1F1" height="33.9688" rx="12.5" ry="12.5" style="stroke:#181818;stroke-width:0.5;" width="436" x="78" y="605.0703"/><text fill="#000000" font-family="sans-serif" font-size="12" lengthAdjust="spacing" textLength="416" x="88" y="626.209">Blockchain tracks resources or funds as they are allocated and used</text><ellipse cx="296" cy="682.0391" fill="none" rx="11" ry="11" style="stroke:#222222;stroke-width:1.0;"/><ellipse cx="296" cy="682.0391" fill="#222222" rx="6" ry="6" style="stroke:#111111;stroke-width:1.0;"/><line style="stroke:#181818;stroke-width:1.0;" x1="296" x2="296" y1="102.6953" y2="122.6953"/><polygon fill="#181818" points="292,112.6953,296,122.6953,300,112.6953,296,116.6953" style="stroke:#181818;stroke-width:1.0;"/><line style="stroke:#181818;stroke-width:1.0;" x1="296" x2="296" y1="222.9609" y2="242.9609"/><polygon fill="#181818" points="292,232.9609,296,242.9609,300,232.9609,296,236.9609" style="stroke:#181818;stroke-width:1.0;"/><line style="stroke:#181818;stroke-width:1.0;" x1="296" x2="296" y1="276.9297" y2="296.9297"/><polygon fill="#181818" points="292,286.9297,296,296.9297,300,286.9297,296,290.9297" style="stroke:#181818;stroke-width:1.0;"/><line style="stroke:#181818;stroke-width:1.0;" x1="296" x2="296" y1="330.8984" y2="350.8984"/><polygon fill="#181818" points="292,340.8984,296,350.8984,300,340.8984,296,344.8984" style="stroke:#181818;stroke-width:1.0;"/><line style="stroke:#181818;stroke-width:1.0;" x1="296" x2="296" y1="142.6953" y2="188.9922"/><polygon fill="#181818" points="292,178.9922,296,188.9922,300,178.9922,296,182.9922" style="stroke:#181818;stroke-width:1.0;"/><line style="stroke:#181818;stroke-width:1.0;" x1="296" x2="296" y1="477.1328" y2="497.1328"/><polygon fill="#181818" points="292,487.1328,296,497.1328,300,487.1328,296,491.1328" style="stroke:#181818;stroke-width:1.0;"/><line style="stroke:#181818;stroke-width:1.0;" x1="296" x2="296" y1="531.1016" y2="551.1016"/><polygon fill="#181818" points="292,541.1016,296,551.1016,300,541.1016,296,545.1016" style="stroke:#181818;stroke-width:1.0;"/><line style="stroke:#181818;stroke-width:1.0;" x1="296" x2="296" y1="585.0703" y2="605.0703"/><polygon fill="#181818" points="292,595.0703,296,605.0703,300,595.0703,296,599.0703" style="stroke:#181818;stroke-width:1.0;"/><line style="stroke:#181818;stroke-width:1.0;" x1="296" x2="296" y1="384.8672" y2="443.1641"/><polygon fill="#181818" points="292,433.1641,296,443.1641,300,433.1641,296,437.1641" style="stroke:#181818;stroke-width:1.0;"/><line style="stroke:#181818;stroke-width:1.0;" x1="296" x2="296" y1="639.0391" y2="671.0391"/><polygon fill="#181818" points="292,661.0391,296,671.0391,300,661.0391,296,665.0391" style="stroke:#181818;stroke-width:1.0;"/><!--SRC=[XLFDZjGm3BxdAQoz08Vb0PRJ0aAQ0rArk-AUJTpMcZIfOhTGqBuxJZg_7IIaqHng-_kp8oG1uN47Ddhu79BRkzvI1FqrqsiWTzzacgqWD3PBnCmzZGplcwRX3yR4f9LCNI_cfIS6JxRBTe0qIQ283D8Zp3PJcjZyj0l_WyhP21Xx6ns2-J_fHuCwNuYDOT6wCQF-ar2ASAVmHResti4VOm0UAg4DoszLuwrOa0JaCGgr2unM17FagcdCwCa9Z8gjPHl0PHeG-YIit_YJmfqDFq2pzjEiEfEgfjYT64ENCaa_y94SUCepKWZLPvkIs0wlj53qD9EVRBXX-cPTaVE4BdMnEhsnngcs32h9gWCMlZPwyYHzHglLbAizKW2mnGN9ikLzNa6_Lz37GiN4HsgAWhfimJMzwv3Rd8RZuZNOTPirvBfWbJjbXpT6lvRPtG6uBBICd8dVhdQzETUBdPyhx_Z86D1tc5LBqf2BPf1i8okU1bDvQ1WciQ_w7h86dJsaTkqfyQHu8_RbDE-MLQXpQOeAGK73t2Y1LfUetsjWvLbCZ8M1CRJt-0lT97f0m8CQ19UYChlRctkkvI_7yfRZmXqhObupnxRLwoms1vG-UJs_V3WDMM36J5glUM_fTiUc7nTDMz8YPSyQsc6fvRJQANfLKPrgE4L8q0arxwiaDU-tP4y7W1AiszVNz5RUU1h_0W00]--></g></svg>