<?xml version="1.0" encoding="us-ascii" standalone="no"?><svg xmlns="http://www.w3.org/2000/svg" xmlns:xlink="http://www.w3.org/1999/xlink" contentStyleType="text/css" height="584px" preserveAspectRatio="none" style="width:1352px;height:584px;background:#FFFFFF;" version="1.1" viewBox="0 0 1352 584" width="1352px" zoomAndPan="magnify"><defs/><g><rect fill="#F1F1F1" height="36.2969" rx="12.5" ry="12.5" style="stroke:#181818;stroke-width:1.5;" width="275" x="10" y="273.3359"/><text fill="#000000" font-family="sans-serif" font-size="14" lengthAdjust="spacing" textLength="255" x="20" y="296.3311">Enhancing Intelligence-Led Policing</text><rect fill="#F1F1F1" height="36.2969" rx="12.5" ry="12.5" style="stroke:#181818;stroke-width:1.5;" width="245" x="335" y="160.7422"/><text fill="#000000" font-family="sans-serif" font-size="14" lengthAdjust="spacing" textLength="225" x="345" y="183.7373">AI and Blockchain Technologies</text><rect fill="#F1F1F1" height="36.2969" rx="12.5" ry="12.5" style="stroke:#181818;stroke-width:1.5;" width="286" x="630" y="48.1484"/><text fill="#000000" font-family="sans-serif" font-size="14" lengthAdjust="spacing" textLength="266" x="640" y="71.1436">Improve Data Collection and Analysis</text><rect fill="#F1F1F1" height="36.2969" rx="12.5" ry="12.5" style="stroke:#181818;stroke-width:1.5;" width="247" x="966" y="20"/><text fill="#000000" font-family="sans-serif" font-size="14" lengthAdjust="spacing" textLength="227" x="976" y="42.9951">AI for automatic data collection</text><path d="M916,66.2969 L926,66.2969 C941,66.2969 941,38.1484 956,38.1484 L966,38.1484 " fill="none" style="stroke:#181818;stroke-width:1.0;"/><rect fill="#F1F1F1" height="36.2969" rx="12.5" ry="12.5" style="stroke:#181818;stroke-width:1.5;" width="272" x="966" y="76.2969"/><text fill="#000000" font-family="sans-serif" font-size="14" lengthAdjust="spacing" textLength="252" x="976" y="99.292">AI for complex pattern recognition</text><path d="M916,66.2969 L926,66.2969 C941,66.2969 941,94.4453 956,94.4453 L966,94.4453 " fill="none" style="stroke:#181818;stroke-width:1.0;"/><path d="M580,178.8906 L590,178.8906 C605,178.8906 605,66.2969 620,66.2969 L630,66.2969 " fill="none" style="stroke:#181818;stroke-width:1.0;"/><rect fill="#F1F1F1" height="36.2969" rx="12.5" ry="12.5" style="stroke:#181818;stroke-width:1.5;" width="242" x="630" y="160.7422"/><text fill="#000000" font-family="sans-serif" font-size="14" lengthAdjust="spacing" textLength="222" x="640" y="183.7373">Strategic and Tactical Planning</text><rect fill="#F1F1F1" height="36.2969" rx="12.5" ry="12.5" style="stroke:#181818;stroke-width:1.5;" width="208" x="922" y="132.5938"/><text fill="#000000" font-family="sans-serif" font-size="14" lengthAdjust="spacing" textLength="188" x="932" y="155.5889">Predictive models using AI</text><path d="M872,178.8906 L882,178.8906 C897,178.8906 897,150.7422 912,150.7422 L922,150.7422 " fill="none" style="stroke:#181818;stroke-width:1.0;"/><rect fill="#F1F1F1" height="36.2969" rx="12.5" ry="12.5" style="stroke:#181818;stroke-width:1.5;" width="278" x="922" y="188.8906"/><text fill="#000000" font-family="sans-serif" font-size="14" lengthAdjust="spacing" textLength="258" x="932" y="211.8857">Resource allocation using AI analysis</text><path d="M872,178.8906 L882,178.8906 C897,178.8906 897,207.0391 912,207.0391 L922,207.0391 " fill="none" style="stroke:#181818;stroke-width:1.0;"/><path d="M580,178.8906 L590,178.8906 C605,178.8906 605,178.8906 620,178.8906 L630,178.8906 " fill="none" style="stroke:#181818;stroke-width:1.0;"/><rect fill="#F1F1F1" height="36.2969" rx="12.5" ry="12.5" style="stroke:#181818;stroke-width:1.5;" width="117" x="630" y="245.1875"/><text fill="#000000" font-family="sans-serif" font-size="14" lengthAdjust="spacing" textLength="97" x="640" y="268.1826">Collaboration</text><rect fill="#F1F1F1" height="36.2969" rx="12.5" ry="12.5" style="stroke:#181818;stroke-width:1.5;" width="319" x="797" y="245.1875"/><text fill="#000000" font-family="sans-serif" font-size="14" lengthAdjust="spacing" textLength="299" x="807" y="268.1826">Blockchain for secure information sharing</text><path d="M747,263.3359 L757,263.3359 C772,263.3359 772,263.3359 787,263.3359 L797,263.3359 " fill="none" style="stroke:#181818;stroke-width:1.0;"/><path d="M580,178.8906 L590,178.8906 C605,178.8906 605,263.3359 620,263.3359 L630,263.3359 " fill="none" style="stroke:#181818;stroke-width:1.0;"/><rect fill="#F1F1F1" height="36.2969" rx="12.5" ry="12.5" style="stroke:#181818;stroke-width:1.5;" width="178" x="630" y="301.4844"/><text fill="#000000" font-family="sans-serif" font-size="14" lengthAdjust="spacing" textLength="158" x="640" y="324.4795">Continuous Evaluation</text><rect fill="#F1F1F1" height="36.2969" rx="12.5" ry="12.5" style="stroke:#181818;stroke-width:1.5;" width="379" x="858" y="301.4844"/><text fill="#000000" font-family="sans-serif" font-size="14" lengthAdjust="spacing" textLength="359" x="868" y="324.4795">AI for processing feedback and refining processes</text><path d="M808,319.6328 L818,319.6328 C833,319.6328 833,319.6328 848,319.6328 L858,319.6328 " fill="none" style="stroke:#181818;stroke-width:1.0;"/><path d="M580,178.8906 L590,178.8906 C605,178.8906 605,319.6328 620,319.6328 L630,319.6328 " fill="none" style="stroke:#181818;stroke-width:1.0;"/><path d="M285,291.4844 L295,291.4844 C310,291.4844 310,178.8906 325,178.8906 L335,178.8906 " fill="none" style="stroke:#181818;stroke-width:1.0;"/><rect fill="#F1F1F1" height="36.2969" rx="12.5" ry="12.5" style="stroke:#181818;stroke-width:1.5;" width="252" x="335" y="442.2266"/><text fill="#000000" font-family="sans-serif" font-size="14" lengthAdjust="spacing" textLength="232" x="345" y="465.2217">Ethical and Legal Considerations</text><rect fill="#F1F1F1" height="36.2969" rx="12.5" ry="12.5" style="stroke:#181818;stroke-width:1.5;" width="295" x="637" y="385.9297"/><text fill="#000000" font-family="sans-serif" font-size="14" lengthAdjust="spacing" textLength="275" x="647" y="408.9248">Balancing Technology Use with Privacy</text><rect fill="#F1F1F1" height="36.2969" rx="12.5" ry="12.5" style="stroke:#181818;stroke-width:1.5;" width="234" x="982" y="357.7813"/><text fill="#000000" font-family="sans-serif" font-size="14" lengthAdjust="spacing" textLength="214" x="992" y="380.7764">Ensuring responsible use of AI</text><path d="M932,404.0781 L942,404.0781 C957,404.0781 957,375.9297 972,375.9297 L982,375.9297 " fill="none" style="stroke:#181818;stroke-width:1.0;"/><rect fill="#F1F1F1" height="36.2969" rx="12.5" ry="12.5" style="stroke:#181818;stroke-width:1.5;" width="358" x="982" y="414.0781"/><text fill="#000000" font-family="sans-serif" font-size="14" lengthAdjust="spacing" textLength="338" x="992" y="437.0732">Protecting sensitive information on blockchain</text><path d="M932,404.0781 L942,404.0781 C957,404.0781 957,432.2266 972,432.2266 L982,432.2266 " fill="none" style="stroke:#181818;stroke-width:1.0;"/><path d="M587,460.375 L597,460.375 C612,460.375 612,404.0781 627,404.0781 L637,404.0781 " fill="none" style="stroke:#181818;stroke-width:1.0;"/><rect fill="#F1F1F1" height="36.2969" rx="12.5" ry="12.5" style="stroke:#181818;stroke-width:1.5;" width="180" x="637" y="498.5234"/><text fill="#000000" font-family="sans-serif" font-size="14" lengthAdjust="spacing" textLength="160" x="647" y="521.5186">Ethical Considerations</text><rect fill="#F1F1F1" height="36.2969" rx="12.5" ry="12.5" style="stroke:#181818;stroke-width:1.5;" width="262" x="867" y="470.375"/><text fill="#000000" font-family="sans-serif" font-size="14" lengthAdjust="spacing" textLength="242" x="877" y="493.3701">Avoiding biases in AI training data</text><path d="M817,516.6719 L827,516.6719 C842,516.6719 842,488.5234 857,488.5234 L867,488.5234 " fill="none" style="stroke:#181818;stroke-width:1.0;"/><rect fill="#F1F1F1" height="36.2969" rx="12.5" ry="12.5" style="stroke:#181818;stroke-width:1.5;" width="406" x="867" y="526.6719"/><text fill="#000000" font-family="sans-serif" font-size="14" lengthAdjust="spacing" textLength="386" x="877" y="549.667">Maintaining public trust with blockchain transparency</text><path d="M817,516.6719 L827,516.6719 C842,516.6719 842,544.8203 857,544.8203 L867,544.8203 " fill="none" style="stroke:#181818;stroke-width:1.0;"/><path d="M587,460.375 L597,460.375 C612,460.375 612,516.6719 627,516.6719 L637,516.6719 " fill="none" style="stroke:#181818;stroke-width:1.0;"/><path d="M285,291.4844 L295,291.4844 C310,291.4844 310,460.375 325,460.375 L335,460.375 " fill="none" style="stroke:#181818;stroke-width:1.0;"/><!--SRC=[PL9TRzim37pth-1Z6w35rXNRqAT-PLkA10YQfE-qp3X2PSgGA7VvzwFa9ErGm0-MU3pUdNWR1ODqbfiE-se2KzuX6yijp5Z8ETiI6xgOKmDBxsokL9C9tCq0kO5xvyshsQ5bM9FPiNU-jHGLCO5PrmS_43oY83nuvyY8zLpwxXZTFje2B6HR7m2J-0x56cXoYpcr_8SolkiT_OKUHIWm13A-PNl4mKe22hNAaWUjKHaCEbWwP1x5AsWPgB5QKNcTRyX5I35xlfkDzMUAFWL3W4uTOj5zH2Zlk_XY36iVy5teXr2ou4Wc1GBBUkX6ghZ3SD2Y12oMaqyHfWEwX9ySQuo6Ofc-9MfgDA_5Mw2jpPQEW98xJ6LN36V4d5hzqmdHDZHA75NVepkyykdPzh2916zMTfgE7T3iHn5JZYcBrN6npqor8ys2m6zFSIs3b_nKYegaa1BiHyFwrQTKYeAZpC_YrFVWRPF9QelgIfbo5Fgkezsy7IDmeJTokErJhUkfg1HbjF4-CVTox37eBk-hMz9bFonybVT2Deiv31HYblhrykhBrRVB7pK9Nfzj-9Nz6vUjisfSR4VdrTdlvHmE6zBOAC7MAUi_hvvmG7XEd74ta4zdwyKvhAR7IyrpiC5pHopLqyjY1C4VBwlUIm5_lxwujm8h2ge9NXRL8sqnET5MutCkDx1P_xhuMSsHsuIj3YAk7hmE27kjhVu1]--></g></svg>