<?xml version="1.0" encoding="us-ascii" standalone="no"?><svg xmlns="http://www.w3.org/2000/svg" xmlns:xlink="http://www.w3.org/1999/xlink" contentStyleType="text/css" height="641px" preserveAspectRatio="none" style="width:901px;height:641px;background:#FFFFFF;" version="1.1" viewBox="0 0 901 641" width="901px" zoomAndPan="magnify"><defs/><g><rect fill="#F1F1F1" height="36.2969" rx="12.5" ry="12.5" style="stroke:#181818;stroke-width:1.5;" width="232" x="10" y="301.4844"/><text fill="#000000" font-family="sans-serif" font-size="14" lengthAdjust="spacing" textLength="212" x="20" y="324.4795">Intelligence-Led Policing (ILP)</text><rect fill="#F1F1F1" height="36.2969" rx="12.5" ry="12.5" style="stroke:#181818;stroke-width:1.5;" width="182" x="292" y="20"/><text fill="#000000" font-family="sans-serif" font-size="14" lengthAdjust="spacing" textLength="162" x="302" y="42.9951">Information Collection</text><rect fill="#F1F1F1" height="36.2969" rx="12.5" ry="12.5" style="stroke:#181818;stroke-width:1.5;" width="279" x="524" y="20"/><text fill="#000000" font-family="sans-serif" font-size="14" lengthAdjust="spacing" textLength="259" x="534" y="42.9951">Gathering data from various sources</text><path d="M474,38.1484 L484,38.1484 C499,38.1484 499,38.1484 514,38.1484 L524,38.1484 " fill="none" style="stroke:#181818;stroke-width:1.0;"/><path d="M242,319.6328 L252,319.6328 C267,319.6328 267,38.1484 282,38.1484 L292,38.1484 " fill="none" style="stroke:#181818;stroke-width:1.0;"/><rect fill="#F1F1F1" height="36.2969" rx="12.5" ry="12.5" style="stroke:#181818;stroke-width:1.5;" width="115" x="292" y="104.4453"/><text fill="#000000" font-family="sans-serif" font-size="14" lengthAdjust="spacing" textLength="95" x="302" y="127.4404">Data Analysis</text><rect fill="#F1F1F1" height="36.2969" rx="12.5" ry="12.5" style="stroke:#181818;stroke-width:1.5;" width="246" x="457" y="76.2969"/><text fill="#000000" font-family="sans-serif" font-size="14" lengthAdjust="spacing" textLength="226" x="467" y="99.292">Identifying patterns and trends</text><path d="M407,122.5938 L417,122.5938 C432,122.5938 432,94.4453 447,94.4453 L457,94.4453 " fill="none" style="stroke:#181818;stroke-width:1.0;"/><rect fill="#F1F1F1" height="36.2969" rx="12.5" ry="12.5" style="stroke:#181818;stroke-width:1.5;" width="382" x="457" y="132.5938"/><text fill="#000000" font-family="sans-serif" font-size="14" lengthAdjust="spacing" textLength="362" x="467" y="155.5889">Making predictions about future criminal activities</text><path d="M407,122.5938 L417,122.5938 C432,122.5938 432,150.7422 447,150.7422 L457,150.7422 " fill="none" style="stroke:#181818;stroke-width:1.0;"/><path d="M242,319.6328 L252,319.6328 C267,319.6328 267,122.5938 282,122.5938 L292,122.5938 " fill="none" style="stroke:#181818;stroke-width:1.0;"/><rect fill="#F1F1F1" height="36.2969" rx="12.5" ry="12.5" style="stroke:#181818;stroke-width:1.5;" width="230" x="292" y="188.8906"/><text fill="#000000" font-family="sans-serif" font-size="14" lengthAdjust="spacing" textLength="210" x="302" y="211.8857">Dissemination of Intelligence</text><rect fill="#F1F1F1" height="36.2969" rx="12.5" ry="12.5" style="stroke:#181818;stroke-width:1.5;" width="317" x="572" y="188.8906"/><text fill="#000000" font-family="sans-serif" font-size="14" lengthAdjust="spacing" textLength="297" x="582" y="211.8857">Sharing intelligence with relevant parties</text><path d="M522,207.0391 L532,207.0391 C547,207.0391 547,207.0391 562,207.0391 L572,207.0391 " fill="none" style="stroke:#181818;stroke-width:1.0;"/><path d="M242,319.6328 L252,319.6328 C267,319.6328 267,207.0391 282,207.0391 L292,207.0391 " fill="none" style="stroke:#181818;stroke-width:1.0;"/><rect fill="#F1F1F1" height="36.2969" rx="12.5" ry="12.5" style="stroke:#181818;stroke-width:1.5;" width="290" x="292" y="301.4844"/><text fill="#000000" font-family="sans-serif" font-size="14" lengthAdjust="spacing" textLength="270" x="302" y="324.4795">Use of Intelligence in Decision Making</text><rect fill="#F1F1F1" height="36.2969" rx="12.5" ry="12.5" style="stroke:#181818;stroke-width:1.5;" width="156" x="632" y="245.1875"/><text fill="#000000" font-family="sans-serif" font-size="14" lengthAdjust="spacing" textLength="136" x="642" y="268.1826">Guiding operations</text><path d="M582,319.6328 L592,319.6328 C607,319.6328 607,263.3359 622,263.3359 L632,263.3359 " fill="none" style="stroke:#181818;stroke-width:1.0;"/><rect fill="#F1F1F1" height="36.2969" rx="12.5" ry="12.5" style="stroke:#181818;stroke-width:1.5;" width="160" x="632" y="301.4844"/><text fill="#000000" font-family="sans-serif" font-size="14" lengthAdjust="spacing" textLength="140" x="642" y="324.4795">Resource allocation</text><path d="M582,319.6328 L592,319.6328 C607,319.6328 607,319.6328 622,319.6328 L632,319.6328 " fill="none" style="stroke:#181818;stroke-width:1.0;"/><rect fill="#F1F1F1" height="36.2969" rx="12.5" ry="12.5" style="stroke:#181818;stroke-width:1.5;" width="207" x="632" y="357.7813"/><text fill="#000000" font-family="sans-serif" font-size="14" lengthAdjust="spacing" textLength="187" x="642" y="380.7764">Strategic decision making</text><path d="M582,319.6328 L592,319.6328 C607,319.6328 607,375.9297 622,375.9297 L632,375.9297 " fill="none" style="stroke:#181818;stroke-width:1.0;"/><path d="M242,319.6328 L252,319.6328 C267,319.6328 267,319.6328 282,319.6328 L292,319.6328 " fill="none" style="stroke:#181818;stroke-width:1.0;"/><rect fill="#F1F1F1" height="36.2969" rx="12.5" ry="12.5" style="stroke:#181818;stroke-width:1.5;" width="198" x="292" y="442.2266"/><text fill="#000000" font-family="sans-serif" font-size="14" lengthAdjust="spacing" textLength="178" x="302" y="465.2217">Evaluation and Feedback</text><rect fill="#F1F1F1" height="36.2969" rx="12.5" ry="12.5" style="stroke:#181818;stroke-width:1.5;" width="299" x="540" y="414.0781"/><text fill="#000000" font-family="sans-serif" font-size="14" lengthAdjust="spacing" textLength="279" x="550" y="437.0732">Assessing effectiveness of intelligence</text><path d="M490,460.375 L500,460.375 C515,460.375 515,432.2266 530,432.2266 L540,432.2266 " fill="none" style="stroke:#181818;stroke-width:1.0;"/><rect fill="#F1F1F1" height="36.2969" rx="12.5" ry="12.5" style="stroke:#181818;stroke-width:1.5;" width="281" x="540" y="470.375"/><text fill="#000000" font-family="sans-serif" font-size="14" lengthAdjust="spacing" textLength="261" x="550" y="493.3701">Refining process based on feedback</text><path d="M490,460.375 L500,460.375 C515,460.375 515,488.5234 530,488.5234 L540,488.5234 " fill="none" style="stroke:#181818;stroke-width:1.0;"/><path d="M242,319.6328 L252,319.6328 C267,319.6328 267,460.375 282,460.375 L292,460.375 " fill="none" style="stroke:#181818;stroke-width:1.0;"/><rect fill="#F1F1F1" height="36.2969" rx="12.5" ry="12.5" style="stroke:#181818;stroke-width:1.5;" width="252" x="292" y="554.8203"/><text fill="#000000" font-family="sans-serif" font-size="14" lengthAdjust="spacing" textLength="232" x="302" y="577.8154">Ethical and Legal Considerations</text><rect fill="#F1F1F1" height="36.2969" rx="12.5" ry="12.5" style="stroke:#181818;stroke-width:1.5;" width="117" x="594" y="526.6719"/><text fill="#000000" font-family="sans-serif" font-size="14" lengthAdjust="spacing" textLength="97" x="604" y="549.667">Privacy rights</text><path d="M544,572.9688 L554,572.9688 C569,572.9688 569,544.8203 584,544.8203 L594,544.8203 " fill="none" style="stroke:#181818;stroke-width:1.0;"/><rect fill="#F1F1F1" height="36.2969" rx="12.5" ry="12.5" style="stroke:#181818;stroke-width:1.5;" width="171" x="594" y="582.9688"/><text fill="#000000" font-family="sans-serif" font-size="14" lengthAdjust="spacing" textLength="151" x="604" y="605.9639">Potential data biases</text><path d="M544,572.9688 L554,572.9688 C569,572.9688 569,601.1172 584,601.1172 L594,601.1172 " fill="none" style="stroke:#181818;stroke-width:1.0;"/><path d="M242,319.6328 L252,319.6328 C267,319.6328 267,572.9688 282,572.9688 L292,572.9688 " fill="none" style="stroke:#181818;stroke-width:1.0;"/><!--SRC=[NL9DRzim3BtxL_2O14YnTSKszDGkIRiK3X34JU-qJ3j4P2cGQ1VvzwFiP5jxayJ7zq7g8Ge6QTbLBPwo6QoTaBNSa3Cqpwc2hRTis3KmMUVRQJPBaDg75eMzWuMtbamwQcK6poW72WbTeI3KmRVGOs3VHOY-2uPYObYcugD3UuuSXyPrHKwuFgVM4ufGS17GLI21N3LYDdWSoe4g7YGLKVfEeEwa2mGciEP02wZLdeKlOXmZfS9WsDSV8Wx4nG47p_nV0TvP3X38KezEr5EuykqZVMRHJbYIuPWKHflZE3gk4h4_KHZano0x6cS1QAqt-7TwXIYA6ZPGNSdQAnciUhJTc27DvOceAj4SXyP7JHXZKgAwJkleoUb3iicVm-wePZVEqPi4AZ7gcfMs_aS9ApcmIQDKgPmQFItKFLSVScm3zsZE4BWvoEN9IrgaueSFKBAIn-n1TtZzOjdMwa3tcnnw2aF6hpUtNsw_tVmeIV1kidT7vzyT6D-Us188jpJD9i_R_FA3eE8eWSik6PbcBzWZx3gNSFUGRfFNpHIArVKHLgxdu5shnhANjyq8WjzUYfEN0VpzRlwB1GeAwWdUDjcIQkoiQAlnQOFti7zzcl_CSdHDXuqAaSiMNWN2MMl57m00]--></g></svg>